<?xml version="1.0" standalone="no"?>
<!DOCTYPE svg PUBLIC "-//W3C//DTD SVG 20010904//EN"
 "http://www.w3.org/TR/2001/REC-SVG-20010904/DTD/svg10.dtd">
<svg version="1.0" xmlns="http://www.w3.org/2000/svg"
 width="75.000000pt" height="75.000000pt" viewBox="0 0 75.000000 75.000000"
 preserveAspectRatio="xMidYMid meet">

<g transform="translate(0.000000,75.000000) scale(0.100000,-0.100000)"
fill="#000000" stroke="none">
<path d="M0 375 l0 -375 375 0 375 0 0 375 0 375 -375 0 -375 0 0 -375z m334
335 c64 -77 39 -249 -38 -258 -63 -8 -106 58 -106 160 0 88 27 128 87 128 23
0 38 -8 57 -30z m191 -6 c27 -11 45 -60 45 -124 0 -95 -40 -154 -101 -148 -89
8 -108 179 -30 257 21 21 55 27 86 15z m-370 -148 c29 -29 49 -98 41 -145 -17
-107 -119 -123 -166 -26 -32 67 -20 171 22 188 34 14 80 6 103 -17z m536 -16
c28 -16 49 -63 49 -115 0 -52 -10 -77 -48 -117 -33 -35 -68 -36 -104 -1 -25
24 -28 34 -28 91 0 111 62 178 131 142z m-227 -156 c38 -48 86 -96 154 -152
47 -39 52 -47 52 -84 0 -76 -49 -138 -110 -138 -12 0 -63 12 -113 26 l-92 27
-93 -18 c-65 -13 -101 -16 -120 -9 -40 14 -72 68 -72 122 0 44 2 47 118 159
l117 114 64 -3 c62 -4 66 -6 95 -44z"/>
</g>
</svg>
