<?xml version="1.0" standalone="no"?>
<!DOCTYPE svg PUBLIC "-//W3C//DTD SVG 20010904//EN"
 "http://www.w3.org/TR/2001/REC-SVG-20010904/DTD/svg10.dtd">
<svg version="1.0" xmlns="http://www.w3.org/2000/svg"
 width="1280.000000pt" height="880.000000pt" viewBox="0 0 1280.000000 880.000000"
 preserveAspectRatio="xMidYMid meet">
<metadata>
Created by potrace 1.15, written by Peter Selinger 2001-2017
</metadata>
<g transform="translate(0.000000,880.000000) scale(0.100000,-0.100000)"
fill="#000000" stroke="none">
<path d="M7080 8793 c-8 -3 -1574 -831 -3480 -1840 -2852 -1511 -3472 -1843
-3507 -1878 -69 -70 -100 -225 -90 -446 30 -629 351 -1459 641 -1658 34 -23
1804 -1023 4731 -2672 292 -165 539 -299 550 -299 29 1 6847 4580 6864 4611
23 42 7 97 -43 144 -35 32 -81 55 -244 120 l-202 80 -29 90 c-77 232 -101 377
-108 655 -4 181 -2 247 11 338 28 189 6 163 288 341 135 86 256 165 267 175
47 43 8 166 -64 200 -16 8 -226 87 -465 176 -239 89 -1076 400 -1860 692 -784
292 -1501 558 -1595 593 -93 35 -480 179 -860 320 -672 251 -756 278 -805 258z"/>
</g>
</svg>
